<?xml version="1.0" standalone="no"?>
<!DOCTYPE svg PUBLIC "-//W3C//DTD SVG 20010904//EN"
 "http://www.w3.org/TR/2001/REC-SVG-20010904/DTD/svg10.dtd">
<svg version="1.0" xmlns="http://www.w3.org/2000/svg"
 viewBox="0 0 210.000000 210.000000"
 width="280" height="280"
 preserveAspectRatio="xMidYMid meet">
<metadata>
Created by potrace 1.10, written by Peter Selinger 2001-2011
</metadata>
<g transform="translate(0.000000,210.000000) scale(0.100000,-0.100000)"
fill="#ff9900" stroke="none">
<path d="M992 1914 c-12 -8 -26 -23 -31 -32 -8 -15 0 -17 89 -17 89 0 97 2 89
17 -15 28 -52 48 -89 48 -20 0 -46 -7 -58 -16z"/>
<path d="M863 1791 c-128 -35 -252 -113 -320 -203 -46 -60 -54 -75 -83 -148
l-21 -54 45 42 c167 154 415 230 661 203 182 -20 323 -79 451 -187 l64 -54
-21 52 c-63 162 -195 283 -369 340 -95 31 -307 35 -407 9z m329 -26 c111 -24
231 -86 300 -156 50 -51 75 -89 51 -77 -35 16 -153 74 -174 84 -14 7 -46 18
-71 23 -256 58 -500 29 -692 -82 -27 -15 -51 -26 -54 -23 -9 10 49 76 101 116
148 111 350 154 539 115z"/>
<path d="M862 1564 c-131 -29 -256 -93 -347 -180 -58 -56 -135 -166 -135 -195
0 -26 28 -49 59 -49 24 0 34 10 65 59 107 174 306 274 541 274 201 0 346 -54
470 -176 40 -40 82 -91 94 -114 19 -38 25 -43 56 -43 28 0 38 5 47 25 18 41
-15 99 -117 200 -154 154 -314 216 -549 214 -66 -1 -149 -7 -184 -15z m383
-38 c135 -36 242 -94 326 -175 43 -42 109 -136 109 -157 0 -28 -30 -13 -57 28
-121 184 -335 289 -576 283 -123 -3 -160 -8 -229 -30 -137 -44 -241 -118 -320
-226 -28 -38 -54 -69 -59 -69 -31 0 1 74 61 142 97 109 223 176 405 215 76 16
260 10 340 -11z"/>
<path d="M872 1400 c-137 -36 -251 -113 -313 -212 -18 -29 -41 -63 -52 -75
-24 -27 -77 -39 -105 -24 -18 10 -22 7 -31 -22 -25 -80 -61 -308 -61 -389 0
-82 145 -185 301 -214 44 -9 82 -14 84 -12 2 2 21 25 43 52 l39 50 -66 31
c-36 18 -87 51 -113 75 -39 33 -48 38 -48 23 0 -22 58 -80 118 -117 46 -29 48
-33 28 -58 -17 -23 -56 -22 -136 3 -80 25 -134 56 -180 104 -34 35 -35 38 -32
108 3 73 22 198 43 281 11 44 13 46 49 46 46 0 97 38 136 100 69 113 163 178
310 215 105 27 178 31 270 14 175 -31 304 -114 383 -247 23 -38 87 -85 113
-81 34 4 46 -3 56 -38 21 -71 42 -218 42 -290 0 -66 -2 -75 -31 -107 -40 -47
-82 -72 -170 -101 -91 -31 -130 -32 -147 -4 -8 12 -10 24 -5 28 4 4 34 24 66
45 61 41 97 79 97 103 0 9 -19 -2 -47 -27 -50 -43 -150 -100 -178 -100 -17 0
-8 -15 48 -83 l23 -27 81 14 c155 27 303 131 303 214 0 80 -36 309 -61 388 -9
30 -11 31 -39 21 -47 -18 -90 9 -143 92 -102 157 -278 242 -501 240 -66 0
-127 -7 -174 -19z"/>
<path d="M774 1139 c-36 -10 -91 -62 -106 -99 -12 -32 -12 -108 0 -140 27 -68
114 -117 183 -103 46 9 116 81 125 128 25 134 -85 250 -202 214z m112 -48 c61
-37 80 -121 44 -191 -64 -126 -240 -74 -240 70 0 111 106 176 196 121z"/>
<path d="M1235 1138 c-92 -32 -140 -148 -101 -242 17 -40 78 -92 118 -100 112
-22 217 101 187 220 -12 48 -59 101 -105 120 -38 16 -57 16 -99 2z m119 -49
c102 -80 56 -259 -66 -259 -54 0 -94 24 -118 70 -51 100 9 210 116 210 27 0
51 -7 68 -21z"/>
<path d="M575 703 c36 -28 179 -90 245 -107 171 -42 299 -43 454 -5 78 19 257
97 270 117 10 16 -31 8 -87 -16 -26 -12 -89 -36 -140 -53 -87 -31 -100 -32
-247 -33 -102 -1 -172 4 -205 13 -80 21 -167 52 -209 73 -21 11 -53 21 -70 23
-30 4 -30 4 -11 -12z"/>
</g>
</svg>
