<svg xmlns="http://www.w3.org/2000/svg" viewBox="0 0 28.87 28.87"><g data-name="Layer 2"><g data-name="Layer 1"><rect width="28.87" height="28.87" rx="6.48" ry="6.48" fill="#00c7ff"/><path d="M11.74 18.11a3.29 3.29 0 01-3.05-2.28 3.26 3.26 0 001.41 0A3.28 3.28 0 018 14.26a3.18 3.18 0 01-.48-1.75 3.24 3.24 0 001.46.4 3.3 3.3 0 01-1.35-2A3.25 3.25 0 018 8.54 9.39 9.39 0 0014.76 12c0-.13 0-.24-.05-.36a3.28 3.28 0 015.58-2.74.17.17 0 00.17.05 6.6 6.6 0 001.91-.73A3.36 3.36 0 0121 10a6.3 6.3 0 001.83-.49l-.33.49a6.44 6.44 0 01-1.19 1.13.11.11 0 00-.05.1 9.09 9.09 0 01-.06 1.46 9.66 9.66 0 01-.85 2.92 9.44 9.44 0 01-1.77 2.59 8.77 8.77 0 01-4.51 2.51 9.79 9.79 0 01-1.83.22A9.27 9.27 0 017 19.52l-.08-.05a6.64 6.64 0 003.26-.47 6.53 6.53 0 001.56-.89z" fill="#fff" fill-rule="evenodd"/></g></g></svg>