<svg xmlns="http://www.w3.org/2000/svg" data-name="Layer 1" viewBox="0 0 512 512"><defs><linearGradient id="a" x1="256" x2="256" y1="15.711" y2="485.916" gradientUnits="userSpaceOnUse"><stop offset="0" stop-color="#00efd1"/><stop offset="1" stop-color="#00acea"/></linearGradient></defs><path fill="url(#a)" d="M462.091 124.154c-17.8-27.816-56.361-39.395-108.6-32.6-2.689.35-5.4.756-8.133 1.2q-1.647-3.807-3.374-7.5c-22.425-47.662-52.963-73.91-85.984-73.91s-63.559 26.248-85.987 73.908a257.148 257.148 0 00-3.374 7.5 271.27 271.27 0 00-8.133-1.2c-52.236-6.792-90.8 4.787-108.6 32.6s-12.141 67.685 15.92 112.263Q72 246.227 79.4 256q-7.377 9.759-13.571 19.583c-28.061 44.578-33.715 84.447-15.92 112.263 14.471 22.619 42.669 34.5 80.791 34.5a216.185 216.185 0 0027.806-1.9c2.689-.349 5.4-.755 8.133-1.2a273.05 273.05 0 003.374 7.5c22.428 47.66 52.966 73.908 85.987 73.908s63.559-26.248 85.987-73.908q1.732-3.681 3.374-7.5c2.73.442 5.444.848 8.133 1.2a216.177 216.177 0 0027.806 1.9c38.117 0 66.321-11.882 80.791-34.5 17.8-27.816 12.141-67.685-15.92-112.263Q440 265.773 432.6 256q7.377-9.759 13.571-19.583c28.061-44.578 33.715-84.447 15.92-112.263zm-277.6-32.089C204.13 50.329 229.526 27.344 256 27.344s51.869 22.985 71.51 64.721q.878 1.865 1.73 3.768c-23.582 5.207-48.321 13.589-73.24 24.747-24.919-11.158-49.658-19.54-73.24-24.747q.854-1.899 1.729-3.768zM359.367 256a489.442 489.442 0 01-3.049 54.912 489.4 489.4 0 01-44.613 32.161A484.76 484.76 0 01256 373.84a484.666 484.666 0 01-55.7-30.766 489.611 489.611 0 01-44.614-32.162 496 496 0 010-109.824 489.611 489.611 0 0144.614-32.162A484.666 484.666 0 01256 138.16a484.76 484.76 0 0155.7 30.767 489.4 489.4 0 0144.613 32.161A489.442 489.442 0 01359.367 256zm14.445-39.959A372.229 372.229 0 01412.232 256a372.229 372.229 0 01-38.42 39.959c1.026-13.088 1.555-26.439 1.555-39.959s-.529-26.871-1.555-39.959zm-20.664 117.666a356.224 356.224 0 01-17.705 67.427 350.148 350.148 0 01-60.214-18.857 506.888 506.888 0 0045.1-25.726q17.083-10.929 32.819-22.844zm-116.377 48.57a350.184 350.184 0 01-60.215 18.857 356.3 356.3 0 01-17.706-67.427q15.707 11.876 32.822 22.844a506.5 506.5 0 0045.099 25.726zm-98.583-86.319A372.234 372.234 0 0199.767 256a372.234 372.234 0 0138.421-39.958c-1.027 13.087-1.556 26.438-1.556 39.958s.529 26.871 1.556 39.958zm20.662-117.665a356.3 356.3 0 0117.706-67.427 350.184 350.184 0 0160.215 18.857 506.5 506.5 0 00-45.1 25.726q-17.083 10.929-32.821 22.844zm161.478-22.844a506.888 506.888 0 00-45.1-25.726 350.148 350.148 0 0160.214-18.857 356.224 356.224 0 0117.705 67.427q-15.704-11.875-32.819-22.844zM79.369 227.893C54.8 188.856 49.12 155.077 63.388 132.776c11.4-17.817 34.777-27.146 67.049-27.146a202.5 202.5 0 0126.006 1.787q2.044.267 4.107.573c-9.322 25.393-16.073 54.152-19.981 84.826a407.678 407.678 0 00-50.856 50.255q-5.554-7.576-10.344-15.178zm77.074 176.69c-45.747 5.949-78.79-3.06-93.055-25.359s-8.591-56.08 15.981-95.117q4.782-7.595 10.344-15.178a407.678 407.678 0 0050.856 50.255c3.908 30.674 10.659 59.433 19.981 84.826q-2.061.303-4.107.573zm171.067 15.352c-19.641 41.736-45.036 64.721-71.51 64.721s-51.87-22.985-71.511-64.721q-.878-1.864-1.73-3.768c23.582-5.207 48.321-13.589 73.24-24.747 24.92 11.158 49.659 19.54 73.241 24.747q-.855 1.899-1.73 3.768zm105.121-135.828c24.572 39.037 30.249 72.816 15.981 95.117-11.4 17.817-34.778 27.148-67.049 27.146a202.325 202.325 0 01-26.006-1.787 248.229 248.229 0 01-4.108-.573c9.322-25.393 16.073-54.152 19.981-84.826a407.619 407.619 0 0050.857-50.255q5.553 7.577 10.344 15.178zm-10.344-41.036a407.619 407.619 0 00-50.857-50.255c-3.908-30.674-10.659-59.433-19.981-84.826 1.375-.2 2.745-.4 4.108-.573 45.742-5.948 78.789 3.059 93.055 25.359s8.591 56.08-15.981 95.117q-4.782 7.594-10.344 15.178z"/><path fill="url(#a)" d="M256 177.314c-28.32 0-59 8.257-59 26.386v104.747C197 326.575 227.753 335 256.039 335h.575a136.825 136.825 0 0024.8-2.36c21.3-4.088 33.583-12.959 33.583-24.194V203.7c.003-18.129-30.676-26.386-58.997-26.386zm.073 16c26.26 0 40.687 7.161 42.686 10.386-2 3.225-16.426 10.385-42.686 10.385s-40.687-7.16-42.686-10.385c1.999-3.225 16.426-10.386 42.686-10.386zm42.927 45c-2 3.1-16.1 10.607-43 10.607s-41-7.507-43-10.607V222.52c12 5.125 27.625 7.565 43 7.565s31-2.44 43-7.565zm-20.546 78.52a120.174 120.174 0 01-22.485 2c-26.854 0-40.969-7.481-42.969-10.592V292.19c12 5.125 27.625 7.565 43 7.565s31-2.44 43-7.565v16.046c-1 1.689-6.989 5.995-20.546 8.597zM299 273.163c-2 3.11-16.145 10.592-43 10.592s-41-7.482-43-10.592v-15.808c12 5.125 27.625 7.565 43 7.565s31-2.44 43-7.565v15.808z"/></svg>