<svg id="Capa_1" enable-background="new 0 0 512 512" viewBox="0 0 512 512" xmlns="http://www.w3.org/2000/svg"><g><g><g><g><path d="m361.233 444.267v-421.611c0-12.512-10.143-22.656-22.656-22.656h-266.192c-12.513 0-22.656 10.144-22.656 22.656v421.611c0 12.513 10.144 22.656 22.656 22.656h266.192c12.513.001 22.656-10.143 22.656-22.656z" fill="#ffe07d"/><path d="m394.539 0h-65.233c12.513 0 22.656 10.144 22.656 22.656v421.611c0 12.513-10.143 22.656-22.656 22.656h65.233c12.513 0 22.656-10.144 22.656-22.656v-421.611c0-12.512-10.143-22.656-22.656-22.656z" fill="#ffd064"/><path d="m383.572 512c12.513 0 22.657-10.144 22.657-22.656v-421.611c0-12.506-10.133-22.645-22.636-22.656h-266.132c-12.513 0-22.656 10.144-22.656 22.656v421.611c0 12.513 10.144 22.656 22.656 22.656z" fill="#f4fbff"/><path d="m439.615 45.076h-65.314c12.513 0 22.657 10.144 22.657 22.657v421.611c0 12.513-10.144 22.656-22.657 22.656h65.314c12.513 0 22.656-10.144 22.656-22.656v-421.611c0-12.513-10.143-22.657-22.656-22.657z" fill="#e4f6ff"/></g></g><g><g><path d="m236.776 226.895h-81.263c-8.797 0-15.928-7.131-15.928-15.928v-100.764c0-8.797 7.131-15.928 15.928-15.928h81.263c8.797 0 15.928 7.131 15.928 15.928v100.765c0 8.796-7.131 15.927-15.928 15.927z" fill="#bed8fb"/><path d="m196.145 176.018c-25.761 0-47.688 16.389-55.941 39.307 1.897 6.676 8.025 11.571 15.309 11.571h81.263c7.284 0 13.412-4.895 15.309-11.571-8.252-22.918-30.179-39.307-55.94-39.307z" fill="#407093"/><circle cx="196.145" cy="156.624" fill="#365e7d" r="25.37"/></g><g><g><path d="m408.763 290.65h-268.559c-4.267 0-7.726-3.459-7.726-7.726s3.459-7.726 7.726-7.726h268.559c4.267 0 7.726 3.459 7.726 7.726s-3.459 7.726-7.726 7.726z" fill="#407093"/></g><g><path d="m408.763 340.433h-268.559c-4.267 0-7.726-3.459-7.726-7.726s3.459-7.726 7.726-7.726h268.559c4.267 0 7.726 3.459 7.726 7.726s-3.459 7.726-7.726 7.726z" fill="#407093"/></g><g><path d="m408.763 390.216h-268.559c-4.267 0-7.726-3.459-7.726-7.726s3.459-7.726 7.726-7.726h268.559c4.267 0 7.726 3.459 7.726 7.726s-3.459 7.726-7.726 7.726z" fill="#407093"/></g><g><path d="m408.763 440h-268.559c-4.267 0-7.726-3.459-7.726-7.726s3.459-7.726 7.726-7.726h268.559c4.267 0 7.726 3.459 7.726 7.726s-3.459 7.726-7.726 7.726z" fill="#407093"/></g></g></g><g><g><path d="m408.763 188.73h-98.683c-4.267 0-7.726-3.459-7.726-7.726s3.459-7.726 7.726-7.726h98.683c4.267 0 7.726 3.459 7.726 7.726s-3.459 7.726-7.726 7.726z" fill="#407093"/></g><g><path d="m408.763 147.892h-98.683c-4.267 0-7.726-3.459-7.726-7.726s3.459-7.726 7.726-7.726h98.683c4.267 0 7.726 3.459 7.726 7.726s-3.459 7.726-7.726 7.726z" fill="#407093"/></g></g></g></g></svg>