<svg version="1.0" xmlns="http://www.w3.org/2000/svg" viewBox="0 0 210 210"><rect width="100%" height="100%" fill="#fff" rx="15%"/><g fill="#f90"><path d="M99.2 18.6c-1.2.8-2.6 2.3-3.1 3.2-.8 1.5 0 1.7 8.9 1.7s9.7-.2 8.9-1.7c-1.5-2.8-5.2-4.8-8.9-4.8-2 0-4.6.7-5.8 1.6zM86.3 30.9c-12.8 3.5-25.2 11.3-32 20.3-4.6 6-5.4 7.5-8.3 14.8l-2.1 5.4 4.5-4.2c16.7-15.4 41.5-23 66.1-20.3 18.2 2 32.3 7.9 45.1 18.7L166 71l-2.1-5.2c-6.3-16.2-19.5-28.3-36.9-34-9.5-3.1-30.7-3.5-40.7-.9zm32.9 2.6c11.1 2.4 23.1 8.6 30 15.6 5 5.1 7.5 8.9 5.1 7.7-3.5-1.6-15.3-7.4-17.4-8.4-1.4-.7-4.6-1.8-7.1-2.3-25.6-5.8-50-2.9-69.2 8.2-2.7 1.5-5.1 2.6-5.4 2.3-.9-1 4.9-7.6 10.1-11.6 14.8-11.1 35-15.4 53.9-11.5z"/><path d="M86.2 53.6c-13.1 2.9-25.6 9.3-34.7 18C45.7 77.2 38 88.2 38 91.1c0 2.6 2.8 4.9 5.9 4.9 2.4 0 3.4-1 6.5-5.9C61.1 72.7 81 62.7 104.5 62.7c20.1 0 34.6 5.4 47 17.6 4 4 8.2 9.1 9.4 11.4 1.9 3.8 2.5 4.3 5.6 4.3 2.8 0 3.8-.5 4.7-2.5 1.8-4.1-1.5-9.9-11.7-20-15.4-15.4-31.4-21.6-54.9-21.4-6.6.1-14.9.7-18.4 1.5zm38.3 3.8c13.5 3.6 24.2 9.4 32.6 17.5 4.3 4.2 10.9 13.6 10.9 15.7 0 2.8-3 1.3-5.7-2.8-12.1-18.4-33.5-28.9-57.6-28.3-12.3.3-16 .8-22.9 3-13.7 4.4-24.1 11.8-32 22.6-2.8 3.8-5.4 6.9-5.9 6.9-3.1 0 .1-7.4 6.1-14.2 9.7-10.9 22.3-17.6 40.5-21.5 7.6-1.6 26-1 34 1.1z"/><path d="M87.2 70c-13.7 3.6-25.1 11.3-31.3 21.2-1.8 2.9-4.1 6.3-5.2 7.5-2.4 2.7-7.7 3.9-10.5 2.4-1.8-1-2.2-.7-3.1 2.2-2.5 8-6.1 30.8-6.1 38.9 0 8.2 14.5 18.5 30.1 21.4 4.4.9 8.2 1.4 8.4 1.2.2-.2 2.1-2.5 4.3-5.2l3.9-5-6.6-3.1c-3.6-1.8-8.7-5.1-11.3-7.5-3.9-3.3-4.8-3.8-4.8-2.3 0 2.2 5.8 8 11.8 11.7 4.6 2.9 4.8 3.3 2.8 5.8-1.7 2.3-5.6 2.2-13.6-.3s-13.4-5.6-18-10.4c-3.4-3.5-3.5-3.8-3.2-10.8.3-7.3 2.2-19.8 4.3-28.1 1.1-4.4 1.3-4.6 4.9-4.6 4.6 0 9.7-3.8 13.6-10 6.9-11.3 16.3-17.8 31-21.5 10.5-2.7 17.8-3.1 27-1.4 17.5 3.1 30.4 11.4 38.3 24.7 2.3 3.8 8.7 8.5 11.3 8.1 3.4-.4 4.6.3 5.6 3.8 2.1 7.1 4.2 21.8 4.2 29 0 6.6-.2 7.5-3.1 10.7-4 4.7-8.2 7.2-17 10.1-9.1 3.1-13 3.2-14.7.4-.8-1.2-1-2.4-.5-2.8.4-.4 3.4-2.4 6.6-4.5 6.1-4.1 9.7-7.9 9.7-10.3 0-.9-1.9.2-4.7 2.7-5 4.3-15 10-17.8 10-1.7 0-.8 1.5 4.8 8.3l2.3 2.7 8.1-1.4c15.5-2.7 30.3-13.1 30.3-21.4 0-8-3.6-30.9-6.1-38.8-.9-3-1.1-3.1-3.9-2.1-4.7 1.8-9-.9-14.3-9.2-10.2-15.7-27.8-24.2-50.1-24-6.6 0-12.7.7-17.4 1.9z"/><path d="M77.4 96.1c-3.6 1-9.1 6.2-10.6 9.9-1.2 3.2-1.2 10.8 0 14 2.7 6.8 11.4 11.7 18.3 10.3 4.6-.9 11.6-8.1 12.5-12.8 2.5-13.4-8.5-25-20.2-21.4zm11.2 4.8c6.1 3.7 8 12.1 4.4 19.1-6.4 12.6-24 7.4-24-7 0-11.1 10.6-17.6 19.6-12.1zM123.5 96.2c-9.2 3.2-14 14.8-10.1 24.2 1.7 4 7.8 9.2 11.8 10 11.2 2.2 21.7-10.1 18.7-22-1.2-4.8-5.9-10.1-10.5-12-3.8-1.6-5.7-1.6-9.9-.2zm11.9 4.9c10.2 8 5.6 25.9-6.6 25.9-5.4 0-9.4-2.4-11.8-7-5.1-10 .9-21 11.6-21 2.7 0 5.1.7 6.8 2.1zM57.5 139.7c3.6 2.8 17.9 9 24.5 10.7 17.1 4.2 29.9 4.3 45.4.5 7.8-1.9 25.7-9.7 27-11.7 1-1.6-3.1-.8-8.7 1.6-2.6 1.2-8.9 3.6-14 5.3-8.7 3.1-10 3.2-24.7 3.3-10.2.1-17.2-.4-20.5-1.3-8-2.1-16.7-5.2-20.9-7.3-2.1-1.1-5.3-2.1-7-2.3-3-.4-3-.4-1.1 1.2z"/></g></svg>